<?xml version="1.0" encoding="UTF-8" standalone="no"?>
<!DOCTYPE svg PUBLIC "-//W3C//DTD SVG 1.1//EN" "http://www.w3.org/Graphics/SVG/1.1/DTD/svg11.dtd">
<svg width="100%" height="100%" viewBox="0 0 982 964" version="1.1" xmlns="http://www.w3.org/2000/svg" xmlns:xlink="http://www.w3.org/1999/xlink" xml:space="preserve" xmlns:serif="http://www.serif.com/" style="fill-rule:evenodd;clip-rule:evenodd;stroke-linejoin:round;stroke-miterlimit:2;">
    <path d="M356.574,254.995L356.574,896.426C356.574,906.095 346.009,963.41 282.147,963.41C218.285,963.41 207.173,908.022 207.173,898.864L207.173,255.653C207.173,255.653 149.398,315.362 124.812,338.014C111.925,347.582 57.366,382.543 17.315,327.452C-22.735,272.362 24.388,226.438 24.388,226.438L225.953,25.258C225.953,25.258 244.07,1.341 280.241,1.341C316.412,1.341 339.532,28.014 339.532,28.014C339.532,28.014 505.9,193.749 545.301,233.84C558.244,247.781 581.947,293.915 536.719,332.161C483.812,376.9 446.426,343.667 437.737,336.059C413.474,312.044 356.574,254.995 356.574,254.995Z"/>
    <g transform="matrix(1,0,0,-1,417.442,964.751)">
        <path d="M356.574,254.995L356.574,896.426C356.574,906.095 346.009,963.41 282.147,963.41C218.285,963.41 207.173,908.022 207.173,898.864L207.173,255.653C207.173,255.653 149.398,315.362 124.812,338.014C111.925,347.582 57.366,382.543 17.315,327.452C-22.735,272.362 24.388,226.438 24.388,226.438L225.953,25.258C225.953,25.258 244.07,1.341 280.241,1.341C316.412,1.341 339.532,28.014 339.532,28.014C339.532,28.014 505.9,193.749 545.301,233.84C558.244,247.781 581.947,293.915 536.719,332.161C483.812,376.9 446.426,343.667 437.737,336.059C413.474,312.044 356.574,254.995 356.574,254.995Z"/>
    </g>
</svg>
