<svg id="Calque_1" data-name="Calque 1" xmlns="http://www.w3.org/2000/svg" viewBox="0 0 1651.76 1177.41"><defs><style>.cls-1{fill:none;stroke:#00249c;stroke-linejoin:round;stroke-width:52px;}</style></defs><title>favicon</title><path class="cls-1" d="M1126,274.17l156.65,313.31H969.33Z"/><path class="cls-1" d="M1125.75,587.62c-1,291.18-237.51,527.15-528.82,527.15-291.88,0-528.83-236.95-528.83-528.83s237-528.82,528.83-528.82h1.68c82.25.28,158.9,18.07,228.26,52"/><path class="cls-1" d="M529.3,898.16,372.64,584.85H686Z"/><path class="cls-1" d="M529.34,584.12C530.32,292.94,766.85,57,1058.17,57,1350,57,1587,293.92,1587,585.8s-237,528.83-528.82,528.83h-1.68a525.56,525.56,0,0,1-228.13-52.55"/></svg>