<svg id="Calque_1" data-name="Calque 1" xmlns="http://www.w3.org/2000/svg" viewBox="0 0 5859.4348 1119.9773"><defs><style>.cls-1,.cls-2{fill:none;}.cls-1{stroke:#00249c;stroke-linejoin:round;stroke-width:52px;}.cls-3{isolation:isolate;}</style></defs><title>logo</title><path class="cls-1" d="M1258.0475,397.8138l156.6576,313.315H1101.39Z" transform="translate(-174.1648 -154.6228)"/><path class="cls-1" d="M1257.8131,711.2691c-.9808,291.1755-237.5085,527.1428-528.8241,527.1428-291.8763,0-528.8242-236.948-528.8242-528.8243S437.1127,180.7635,728.989,180.7635H730.67c82.2522.28,158.8994,18.0758,228.26,51.9856" transform="translate(-174.1648 -154.6228)"/><path class="cls-1" d="M661.3589,1021.8093,504.7013,708.4943H818.0165Z" transform="translate(-174.1648 -154.6228)"/><path class="cls-1" d="M661.403,707.7655c.9808-291.1755,237.5084-527.1427,528.824-527.1427,291.8763,0,528.8242,236.948,528.8242,528.8242s-236.9479,528.8242-528.8242,528.8242h-1.6814a525.5264,525.5264,0,0,1-228.12-52.5461" transform="translate(-174.1648 -154.6228)"/><rect class="cls-2" x="1680.6353" y="126.0772" width="4178.7996" height="993.9001"/><g class="cls-3"><g class="cls-3"><path d="M2067.2764,1083.1543q-80.4375-49.1719-119.4375-139.125-39.0235-89.9532-39.0157-212.2969,0-141.5155,49.8125-232.0781,49.8048-90.5625,130.2344-131.9375,80.4375-41.3907,176.4688-41.3906,73.2188,0,135.0312,18a480.6426,480.6426,0,0,1,118.25,52.7656l-48.0156,83.9531q-93.6562-58.7109-200.4844-58.7187-124.875,0-184.2812,81.5468-59.4375,81.5625-59.4219,221.8594,0,145.1016,62.4219,227.8438,62.4375,82.7577,183.6875,82.75,61.2188,0,110.4375-15.5782,49.2188-15.5625,98.4375-44.3437l44.4218,80.3594q-63.6327,37.1952-124.25,56.375-60.6093,19.1718-133.8281,19.1875Q2147.6983,1132.3262,2067.2764,1083.1543Z" transform="translate(-174.1648 -154.6228)"/><path d="M3071.4209,580.3262v538h-92.4063l-6-40q-92.3437,54-187.0937,54-73.1719,0-119.3281-41.3907-46.172-41.3906-46.1719-125.4062V592.3262l103.2031-12V935.5293q0,39.6093,9.5938,63,9.5859,23.3905,31.1718,33.5937,21.5625,10.2188,59.9532,10.2032,57.539,0,143.875-44.4063V592.3262Z" transform="translate(-174.1648 -154.6228)"/><path d="M3533.6045,580.7324a360.5937,360.5937,0,0,1,36,7.1875l-19.2031,106.8125q-40.8048-14.3905-74.3907-14.4062-38.4139,0-70.8125,16.7968-32.3906,16.8048-62.3906,63.6094v357.5938H3239.6045V591.1387l103.2031-10.8125v76q30-38.3907,69.5938-58.2032a185.5339,185.5339,0,0,1,84-19.7968A265.3122,265.3122,0,0,1,3533.6045,580.7324Z" transform="translate(-174.1648 -154.6228)"/></g><g class="cls-3"><path d="M3965.623,580.7324a360.5937,360.5937,0,0,1,36,7.1875L3982.42,694.7324q-40.8046-14.3905-74.3906-14.4062-38.4141,0-70.8125,16.7968-32.3907,16.8048-62.3906,63.6094v357.5938H3671.623V591.1387l103.2032-10.8125v76q30-38.3907,69.5937-58.2032a185.5345,185.5345,0,0,1,84-19.7968A265.3112,265.3112,0,0,1,3965.623,580.7324Z" transform="translate(-174.1648 -154.6228)"/><path d="M4439.4033,620.3262q46.1953,42,46.2031,132v366h-93.6093l-6-46q-82.8985,60-191.0157,60-45.6562,0-81.7031-17.3907t-55.8594-49.2031q-19.828-31.8047-19.8125-72.6094,0-66,46.8438-109.7968,46.8516-43.7812,124.9531-64.1875,78.0938-20.3907,173-22.8125V770.0137q0-53.836-21.6094-78.3594-21.6093-24.5157-73.1875-24.5313-87.6093,0-182.4062,62.125l-45.5938-71.875q115.1953-79.0312,241.2032-79.0468Q4393.2,578.3262,4439.4033,620.3262Zm-272.7656,408.8125q18.6328,15.6093,55.9062,15.5937,81.7266,0,159.8594-48V871.92q-104.5781,4.8047-169.4844,32.4063-64.9218,27.6093-64.9062,78Q4148.0127,1013.545,4166.6377,1029.1387Z" transform="translate(-174.1648 -154.6228)"/><path d="M4961.001,1098.7168q-62.4375,33.6093-132.0938,33.6094-74.4609,0-117.6875-42.5938-43.2187-42.6093-43.2187-127.8125v-288H4562.4072V592.3262H4668.001V473.17l103.2031-16.8437v136H4949.001L4938.1885,673.92H4771.2041V945.123q0,100.8048,74.4844,100.7969a182.97,182.97,0,0,0,42.0312-4.7969q20.4141-4.7812,44.4532-15.6093Z" transform="translate(-174.1648 -154.6228)"/><path d="M5479.001,873.3262H5112.8135q1.1953,89.9063,43.8437,130.6562,42.6563,40.7578,109.9219,40.75,48.0469,0,83.5-12.0469,35.4375-12.0468,78.6875-37.3593l39.6406,73.3125q-98.4843,63.7031-206.5781,63.6875-115.3125,0-184.3594-64.1563-69.07-64.1484-69.0625-203.25,0-79.125,28.8125-143.8906,28.8048-64.7579,85.8282-103.7344,57.0234-38.953,139.8593-38.9687,69.6328,0,118.8594,28.1875,49.2188,28.1718,74.4219,77.3437,25.2188,49.172,25.2187,112.7188ZM5165.0479,695.8887q-35.4375,37.1484-46.2344,101.8437H5380.61v-4.7969q0-67.0781-30.625-100.6406-30.6328-33.5625-87.0625-33.5625Q5200.4619,658.7324,5165.0479,695.8887Z" transform="translate(-174.1648 -154.6228)"/></g></g></svg>